<svg xmlns="http://www.w3.org/2000/svg" xmlns:xlink="http://www.w3.org/1999/xlink" width="50.906" height="50.602" viewBox="0 0 50.906 50.602"><defs><style>.a{fill:none;}.b{clip-path:url(#a);}.c{fill:#1c1d24;}</style><clipPath id="a"><rect class="a" width="50.906" height="50.602"/></clipPath></defs><g transform="translate(25.453 25.301)"><g class="b" transform="translate(-25.453 -25.301)"><path class="c" d="M20.084,5.189a6.425,6.425,0,0,0,2.965-1.318C26.1,1.4,29.227,1.318,32.357,3.624a6.425,6.425,0,0,0,3.048,1.153c2.306.247,3.954-.906,3.707-2.306S36.723.164,34.581,0h-.659a5.272,5.272,0,0,0-1.977.329A13.18,13.18,0,0,1,23.3.494,6.013,6.013,0,0,0,20.661.411C18.6.659,16.542,1.647,16.295,3.047S17.7,5.519,20,5.107" transform="translate(-2.868 0)"/><path class="c" d="M35.7,55.682a6.343,6.343,0,0,0-2.965,1.236c-3.048,2.306-6.1,2.306-9.143-.082A6.342,6.342,0,0,0,20.621,55.6H19.88c-1.812,0-3.048.988-2.883,2.224s2.306,2.389,4.366,2.554a5.931,5.931,0,0,0,2.554-.247,12.932,12.932,0,0,1,8.484,0,6.013,6.013,0,0,0,2.554.247c2.059-.165,4.119-1.071,4.366-2.471s-1.4-2.471-3.707-2.224" transform="translate(-2.993 -9.801)"/><path class="c" d="M7.836,15.2a5.931,5.931,0,0,0,3.213-1.977C14.673,9.183,18.3,8.854,22,12.313a5.519,5.519,0,0,0,3.872,1.4h0a5.6,5.6,0,0,0,3.872-1.565q5.437-5.437,11.12.494a5.931,5.931,0,0,0,3.295,1.812c2.306.329,3.46-1.565,2.965-4.036a6.1,6.1,0,0,0-4.778-4.86,3.13,3.13,0,0,0-2.718.741c-2.389,2.389-6.59,2.142-10.3-.412A5.931,5.931,0,0,0,25.958,4.9h-.165a6.013,6.013,0,0,0-3.542,1.071c-3.707,2.8-7.743,3.13-10.214.906a3.048,3.048,0,0,0-2.718-.659,6.013,6.013,0,0,0-4.53,5.025c-.329,2.471.824,4.283,3.048,3.872" transform="translate(-0.834 -0.864)"/><path class="c" d="M11.3,43.667a4.778,4.778,0,0,0,3.048,1.565h0A4.016,4.016,0,0,0,18.469,40.7a5.4,5.4,0,0,0-4.778-5.107h0a3.542,3.542,0,0,0-2.883,1.4c-2.718,3.377-5.437,2.883-7.414-.412A2.636,2.636,0,0,0,1.665,35.1H1.583C.512,35.1.1,36.747.1,38.807s.741,4.2,2.059,4.613a1.4,1.4,0,0,0,1.647-.741c1.565-2.471,4.283-2.389,7.5.988" transform="translate(-0.018 -6.187)"/><path class="c" d="M54.758,31.3h-.082c-.824.082-1.483.577-2.471,2.059-1.895,3.13-4.366,5.107-8.073.494a4.86,4.86,0,0,0-4.119-1.977C36.718,31.959,34,35.089,34,38.631A5.487,5.487,0,0,0,39.766,44.4a5.684,5.684,0,0,0,4.119-2.142c1.977-2.224,5.519-5.354,8.237-1.236a2.059,2.059,0,0,0,2.306.988c1.73-.577,2.554-3.213,2.471-5.931s-.659-4.7-2.142-4.7" transform="translate(-5.993 -5.517)"/><path class="c" d="M22.248,53.837a5.766,5.766,0,0,0,3.377.988h.165c2.554,0,4.778-1.565,4.86-3.954s-2.224-4.613-5.107-4.531h-.165a5.272,5.272,0,0,0-3.624,1.483c-3.46,3.46-6.919,3.213-10.461-.494a5.684,5.684,0,0,0-3.13-1.73H7.668c-1.895,0-2.8,1.647-2.389,3.872a5.848,5.848,0,0,0,4.613,4.7,2.965,2.965,0,0,0,2.554-.824c2.306-2.306,6.178-2.059,9.8.494" transform="translate(-0.913 -8.038)"/><path class="c" d="M50.662,46h-.494a6.37,6.37,0,0,0-4.778,5.025c-.329,2.306,1.153,3.542,3.295,3.213a5.684,5.684,0,0,0,4.448-4.531C53.545,47.647,52.557,46,50.662,46" transform="translate(-7.993 -8.109)"/><path class="c" d="M1.647,25.061a2.718,2.718,0,0,0,1.73-1.483c1.977-3.377,4.778-3.954,7.5-.577a3.624,3.624,0,0,0,2.965,1.4h0c2.389-.082,4.7-2.471,4.778-5.272s-1.73-4.53-3.872-4.53h-.412a4.86,4.86,0,0,0-3.048,1.647C8.073,19.625,5.272,19.789,3.707,17.4a1.483,1.483,0,0,0-1.73-.659C.659,17.071,0,19.213,0,21.437s.494,3.789,1.647,3.624" transform="translate(0 -2.574)"/><path class="c" d="M7.66,25.4H7.413C5.518,25.565,4.2,27.706,4.2,30.26s1.318,4.7,3.213,4.86,3.707-2.059,3.707-4.86S9.472,25.4,7.577,25.4" transform="translate(-0.74 -4.477)"/></g></g></svg>